<svg width="34" height="33" viewBox="0 0 34 33" fill="none" xmlns="http://www.w3.org/2000/svg">
<path d="M2.9094 15.0983H17.1314V17.9407H2.9094V15.0983ZM0.539062 7.99219H12.3908V10.8346H0.539062V7.99219Z" fill="#4FD6C4"/>
<path d="M33.6291 15.9562L30.0736 6.00772C29.9824 5.75202 29.8305 5.53408 29.6369 5.38097C29.4432 5.22785 29.2164 5.14631 28.9844 5.14647H25.4289V2.30403C25.4289 1.9271 25.3041 1.56561 25.0818 1.29908C24.8595 1.03255 24.5581 0.882812 24.2438 0.882812H5.28105V3.72525H23.0586V21.5701C22.5185 21.9461 22.0459 22.4466 21.668 23.0428C21.29 23.6389 21.0143 24.3189 20.8565 25.0435H13.4089C13.1205 23.7038 12.4345 22.5362 11.4795 21.7596C10.5245 20.9831 9.36611 20.6508 8.22146 20.8252C7.0768 20.9995 6.02447 21.6685 5.26171 22.7067C4.49895 23.7449 4.07812 25.0811 4.07812 26.4647C4.07812 27.8484 4.49895 29.1846 5.26171 30.2228C6.02447 31.261 7.0768 31.9299 8.22146 32.1043C9.36611 32.2786 10.5245 31.9464 11.4795 31.1698C12.4345 30.3932 13.1205 29.2257 13.4089 27.886H20.8565C21.1144 29.1057 21.704 30.1875 22.5321 30.9603C23.3602 31.7331 24.3796 32.1526 25.4289 32.1526C26.4782 32.1526 27.4976 31.7331 28.3257 30.9603C29.1539 30.1875 29.7435 29.1057 30.0013 27.886H32.5399C32.8543 27.886 33.1557 27.7362 33.378 27.4697C33.6002 27.2032 33.7251 26.8417 33.7251 26.4647V16.5162C33.7252 16.3237 33.6925 16.1331 33.6291 15.9562V15.9562ZM8.83656 29.3072C8.36775 29.3072 7.90947 29.1405 7.51967 28.8281C7.12987 28.5158 6.82606 28.0719 6.64665 27.5525C6.46725 27.0331 6.42031 26.4616 6.51177 25.9102C6.60323 25.3588 6.82898 24.8523 7.16048 24.4548C7.49197 24.0573 7.91433 23.7866 8.37413 23.6769C8.83393 23.5672 9.31052 23.6235 9.74365 23.8387C10.1768 24.0538 10.547 24.4181 10.8074 24.8856C11.0679 25.353 11.2069 25.9026 11.2069 26.4647C11.2063 27.2184 10.9563 27.9409 10.5119 28.4738C10.0676 29.0067 9.46502 29.3064 8.83656 29.3072V29.3072ZM25.4289 7.9889H28.2022L30.7432 15.095H25.4289V7.9889ZM25.4289 29.3072C24.9601 29.3072 24.5018 29.1405 24.112 28.8281C23.7222 28.5158 23.4184 28.0719 23.239 27.5525C23.0596 27.0331 23.0127 26.4616 23.1041 25.9102C23.1956 25.3588 23.4213 24.8523 23.7528 24.4548C24.0843 24.0573 24.5067 23.7866 24.9665 23.6769C25.4263 23.5672 25.9029 23.6235 26.336 23.8387C26.7691 24.0538 27.1393 24.4181 27.3998 24.8856C27.6602 25.353 27.7993 25.9026 27.7993 26.4647C27.7986 27.2184 27.5487 27.9409 27.1043 28.4738C26.6599 29.0067 26.0574 29.3064 25.4289 29.3072ZM31.3548 25.0435H30.0013C29.7402 23.8261 29.1497 22.7471 28.3222 21.9755C27.4947 21.2039 26.4771 20.7834 25.4289 20.7799V17.9374H31.3548V25.0435Z" fill="#4FD6C4"/>
</svg>
