<svg width="26" height="33" viewBox="0 0 26 33" fill="none" xmlns="http://www.w3.org/2000/svg">
<path d="M12.9974 13.9417C13.5957 13.9417 14.0807 13.4616 14.0807 12.8693C14.0807 12.277 13.5957 11.7969 12.9974 11.7969C12.3991 11.7969 11.9141 12.277 11.9141 12.8693C11.9141 13.4616 12.3991 13.9417 12.9974 13.9417Z" stroke="black" stroke-opacity="0.5" stroke-width="2" stroke-linecap="round" stroke-linejoin="round"/>
<path d="M20.5833 13.9417C21.1816 13.9417 21.6667 13.4616 21.6667 12.8693C21.6667 12.277 21.1816 11.7969 20.5833 11.7969C19.985 11.7969 19.5 12.277 19.5 12.8693C19.5 13.4616 19.985 13.9417 20.5833 13.9417Z" stroke="black" stroke-opacity="0.5" stroke-width="2" stroke-linecap="round" stroke-linejoin="round"/>
<path d="M5.41927 13.9417C6.01758 13.9417 6.5026 13.4616 6.5026 12.8693C6.5026 12.277 6.01758 11.7969 5.41927 11.7969C4.82096 11.7969 4.33594 12.277 4.33594 12.8693C4.33594 13.4616 4.82096 13.9417 5.41927 13.9417Z" stroke="black" stroke-opacity="0.5" stroke-width="2" stroke-linecap="round" stroke-linejoin="round"/>
<g clip-path="url(#clip0_487_1186)">
<path d="M12.9974 20.2152C13.5957 20.2152 14.0807 19.735 14.0807 19.1427C14.0807 18.5505 13.5957 18.0703 12.9974 18.0703C12.3991 18.0703 11.9141 18.5505 11.9141 19.1427C11.9141 19.735 12.3991 20.2152 12.9974 20.2152Z" stroke="black" stroke-opacity="0.5" stroke-width="2" stroke-linecap="round" stroke-linejoin="round"/>
<path d="M20.5833 20.2152C21.1816 20.2152 21.6667 19.735 21.6667 19.1427C21.6667 18.5505 21.1816 18.0703 20.5833 18.0703C19.985 18.0703 19.5 18.5505 19.5 19.1427C19.5 19.735 19.985 20.2152 20.5833 20.2152Z" stroke="black" stroke-opacity="0.5" stroke-width="2" stroke-linecap="round" stroke-linejoin="round"/>
<path d="M5.41927 20.2152C6.01758 20.2152 6.5026 19.735 6.5026 19.1427C6.5026 18.5505 6.01758 18.0703 5.41927 18.0703C4.82096 18.0703 4.33594 18.5505 4.33594 19.1427C4.33594 19.735 4.82096 20.2152 5.41927 20.2152Z" stroke="black" stroke-opacity="0.5" stroke-width="2" stroke-linecap="round" stroke-linejoin="round"/>
<path d="M12.9974 25.7777C13.5957 25.7777 14.0807 25.2975 14.0807 24.7052C14.0807 24.113 13.5957 23.6328 12.9974 23.6328C12.3991 23.6328 11.9141 24.113 11.9141 24.7052C11.9141 25.2975 12.3991 25.7777 12.9974 25.7777Z" stroke="black" stroke-opacity="0.5" stroke-width="2" stroke-linecap="round" stroke-linejoin="round"/>
<path d="M20.5833 25.7777C21.1816 25.7777 21.6667 25.2975 21.6667 24.7052C21.6667 24.113 21.1816 23.6328 20.5833 23.6328C19.985 23.6328 19.5 24.113 19.5 24.7052C19.5 25.2975 19.985 25.7777 20.5833 25.7777Z" stroke="black" stroke-opacity="0.5" stroke-width="2" stroke-linecap="round" stroke-linejoin="round"/>
<path d="M5.41927 25.7777C6.01758 25.7777 6.5026 25.2975 6.5026 24.7052C6.5026 24.113 6.01758 23.6328 5.41927 23.6328C4.82096 23.6328 4.33594 24.113 4.33594 24.7052C4.33594 25.2975 4.82096 25.7777 5.41927 25.7777Z" stroke="black" stroke-opacity="0.5" stroke-width="2" stroke-linecap="round" stroke-linejoin="round"/>
</g>
<defs>
<clipPath id="clip0_487_1186">
<rect width="26" height="25.7384" fill="white" transform="translate(0 6.27344)"/>
</clipPath>
</defs>
</svg>
