<svg width="30" height="28" viewBox="0 0 30 28" fill="none" xmlns="http://www.w3.org/2000/svg">
<path fill-rule="evenodd" clip-rule="evenodd" d="M23.0613 9.46184C22.7697 9.73635 22.3743 9.89055 21.9621 9.89055C21.5499 9.89055 21.1545 9.73635 20.8629 9.46184L16.777 5.61143V20.0338C16.777 20.4226 16.6131 20.7955 16.3214 21.0704C16.0297 21.3453 15.634 21.4997 15.2215 21.4997C14.8089 21.4997 14.4132 21.3453 14.1215 21.0704C13.8298 20.7955 13.6659 20.4226 13.6659 20.0338V5.61143L9.58004 9.46184C9.28517 9.72078 8.89515 9.86174 8.49216 9.85504C8.08917 9.84834 7.70467 9.6945 7.41967 9.42592C7.13467 9.15734 6.97142 8.795 6.96431 8.41524C6.9572 8.03547 7.10678 7.66793 7.38155 7.39005L14.1222 1.03785L15.2215 0L16.3207 1.0359L23.0613 7.38809C23.2059 7.52423 23.3206 7.68587 23.3988 7.86378C23.477 8.04169 23.5173 8.23238 23.5173 8.42497C23.5173 8.61755 23.477 8.80825 23.3988 8.98616C23.3206 9.16407 23.2059 9.32571 23.0613 9.46184ZM3.81419 17.1021C3.81419 16.7133 3.65031 16.3404 3.35859 16.0655C3.06687 15.7906 2.67121 15.6362 2.25866 15.6362C1.84611 15.6362 1.45045 15.7906 1.15873 16.0655C0.867011 16.3404 0.703125 16.7133 0.703125 17.1021V23.4543C0.703125 24.491 1.14016 25.4853 1.91807 26.2184C2.69599 26.9515 3.75108 27.3633 4.85122 27.3633H25.5917C26.6918 27.3633 27.7469 26.9515 28.5248 26.2184C29.3027 25.4853 29.7398 24.491 29.7398 23.4543V17.1021C29.7398 16.7133 29.5759 16.3404 29.2842 16.0655C28.9925 15.7906 28.5968 15.6362 28.1842 15.6362C27.7717 15.6362 27.376 15.7906 27.0843 16.0655C26.7926 16.3404 26.6287 16.7133 26.6287 17.1021V23.4543C26.6287 23.7134 26.5194 23.962 26.325 24.1453C26.1305 24.3286 25.8667 24.4315 25.5917 24.4315H4.85122C4.57618 24.4315 4.31241 24.3286 4.11793 24.1453C3.92345 23.962 3.81419 23.7134 3.81419 23.4543V17.1021Z" fill="#4FD6C4"/>
</svg>
