<svg width="52" height="34" viewBox="0 0 52 34" fill="none" xmlns="http://www.w3.org/2000/svg">
<rect x="2" y="1" width="50" height="30" rx="15" fill="#787880" fill-opacity="0.16"/>
<g filter="url(#filter0_dd_354_1069)">
<path fill-rule="evenodd" clip-rule="evenodd" d="M17 30C24.732 30 31 23.732 31 16C31 8.26801 24.732 2 17 2C9.26801 2 3 8.26801 3 16C3 23.732 9.26801 30 17 30Z" fill="white"/>
<path d="M17 30.25C24.8701 30.25 31.25 23.8701 31.25 16C31.25 8.12994 24.8701 1.75 17 1.75C9.12994 1.75 2.75 8.12994 2.75 16C2.75 23.8701 9.12994 30.25 17 30.25Z" stroke="black" stroke-opacity="0.04" stroke-width="0.5"/>
</g>
<defs>
<filter id="filter0_dd_354_1069" x="0.5" y="0.5" width="33" height="33" filterUnits="userSpaceOnUse" color-interpolation-filters="sRGB">
<feFlood flood-opacity="0" result="BackgroundImageFix"/>
<feColorMatrix in="SourceAlpha" type="matrix" values="0 0 0 0 0 0 0 0 0 0 0 0 0 0 0 0 0 0 127 0" result="hardAlpha"/>
<feOffset dy="1"/>
<feGaussianBlur stdDeviation="1"/>
<feColorMatrix type="matrix" values="0 0 0 0 0 0 0 0 0 0 0 0 0 0 0 0 0 0 0.2 0"/>
<feBlend mode="normal" in2="BackgroundImageFix" result="effect1_dropShadow_354_1069"/>
<feColorMatrix in="SourceAlpha" type="matrix" values="0 0 0 0 0 0 0 0 0 0 0 0 0 0 0 0 0 0 127 0" result="hardAlpha"/>
<feOffset dy="0.1"/>
<feGaussianBlur stdDeviation="0.15"/>
<feColorMatrix type="matrix" values="0 0 0 0 0 0 0 0 0 0 0 0 0 0 0 0 0 0 0.1 0"/>
<feBlend mode="normal" in2="effect1_dropShadow_354_1069" result="effect2_dropShadow_354_1069"/>
<feBlend mode="normal" in="SourceGraphic" in2="effect2_dropShadow_354_1069" result="shape"/>
</filter>
</defs>
</svg>
