<svg width="30" height="30" viewBox="0 0 30 30" fill="none" xmlns="http://www.w3.org/2000/svg">
<path d="M24.3738 18.7529C23.7407 18.7554 23.1273 18.9737 22.6348 19.3716L20.6238 18.212V16.7063C21.2494 16.4852 21.7766 16.05 22.1123 15.4778C22.4479 14.9055 22.5705 14.233 22.4583 13.5791C22.3462 12.9252 22.0064 12.332 21.4992 11.9044C20.9919 11.4767 20.3498 11.2422 19.6863 11.2422C19.0229 11.2422 18.3808 11.4767 17.8735 11.9044C17.3663 12.332 17.0265 12.9252 16.9144 13.5791C16.8022 14.233 16.9247 14.9055 17.2604 15.4778C17.5961 16.05 18.1233 16.4852 18.7488 16.7063V18.212L16.7379 19.3735C16.2457 18.9749 15.6323 18.7559 14.9988 18.7529C14.4112 18.7489 13.8369 18.9279 13.3555 19.265C12.8742 19.6021 12.5097 20.0807 12.3125 20.6343C12.1154 21.1879 12.0954 21.7891 12.2553 22.3546C12.4152 22.9201 12.7472 23.4218 13.205 23.7901C13.6629 24.1585 14.2241 24.3752 14.8107 24.4103C15.3973 24.4454 15.9803 24.297 16.4788 23.9859C16.9774 23.6747 17.3667 23.2161 17.5929 22.6737C17.819 22.1313 17.8708 21.532 17.741 20.9588L19.6863 19.8348L21.6317 20.9579C21.5063 21.5262 21.5604 22.1195 21.7865 22.6558C22.0127 23.192 22.3998 23.6449 22.8943 23.9517C23.3889 24.2586 23.9665 24.4044 24.5474 24.3689C25.1283 24.3335 25.684 24.1186 26.1375 23.7539C26.5911 23.3891 26.9202 22.8926 27.0795 22.3328C27.2389 21.7731 27.2205 21.1776 27.0269 20.6287C26.8333 20.0799 26.4741 19.6046 25.9989 19.2686C25.5237 18.9326 24.9559 18.7524 24.3738 18.7529ZM14.9988 22.5029C14.8134 22.5029 14.6322 22.4479 14.478 22.3449C14.3238 22.2419 14.2037 22.0955 14.1327 21.9242C14.0618 21.7529 14.0432 21.5644 14.0794 21.3825C14.1155 21.2006 14.2048 21.0336 14.3359 20.9025C14.467 20.7714 14.6341 20.6821 14.816 20.6459C14.9978 20.6097 15.1863 20.6283 15.3576 20.6993C15.5289 20.7702 15.6753 20.8904 15.7784 21.0446C15.8814 21.1987 15.9363 21.38 15.9363 21.5654C15.9363 21.814 15.8376 22.0525 15.6618 22.2283C15.4859 22.4041 15.2475 22.5029 14.9988 22.5029ZM19.6863 13.1279C19.8718 13.1279 20.053 13.1829 20.2072 13.2859C20.3614 13.3889 20.4815 13.5353 20.5525 13.7066C20.6234 13.8779 20.642 14.0664 20.6058 14.2483C20.5697 14.4302 20.4804 14.5972 20.3493 14.7283C20.2181 14.8594 20.0511 14.9487 19.8692 14.9849C19.6874 15.0211 19.4989 15.0025 19.3276 14.9315C19.1563 14.8606 19.0099 14.7404 18.9068 14.5862C18.8038 14.4321 18.7488 14.2508 18.7488 14.0654C18.7488 13.8168 18.8476 13.5783 19.0234 13.4025C19.1992 13.2267 19.4377 13.1279 19.6863 13.1279ZM24.3738 22.5029C24.1884 22.5029 24.0072 22.4479 23.853 22.3449C23.6988 22.2419 23.5787 22.0955 23.5077 21.9242C23.4368 21.7529 23.4182 21.5644 23.4544 21.3825C23.4905 21.2006 23.5798 21.0336 23.7109 20.9025C23.842 20.7714 24.0091 20.6821 24.1909 20.6459C24.3728 20.6097 24.5613 20.6283 24.7326 20.6993C24.9039 20.7702 25.0503 20.8904 25.1534 21.0446C25.2564 21.1987 25.3113 21.38 25.3113 21.5654C25.3113 21.814 25.2126 22.0525 25.0368 22.2283C24.8609 22.4041 24.6225 22.5029 24.3738 22.5029Z" fill="black"/>
<path d="M15 29.0637C12.2659 29.0608 9.64457 27.9733 7.71125 26.04C5.77793 24.1067 4.69048 21.4854 4.6875 18.7512V5.98438L14.9878 0.828125L24.7941 5.73781L23.955 7.41406L14.9878 2.92438L6.5625 7.14313V18.7512C6.56233 20.3183 6.99854 21.8544 7.82226 23.1874C8.64599 24.5205 9.82467 25.5978 11.2262 26.2987C12.6278 26.9996 14.1968 27.2963 15.7575 27.1556C17.3182 27.0149 18.8089 26.4424 20.0625 25.5022L21.1875 27.0012C19.4054 28.3457 17.2323 29.07 15 29.0637Z" fill="black"/>
</svg>
