<svg width="30" height="30" viewBox="0 0 30 30" fill="none" xmlns="http://www.w3.org/2000/svg">
<path d="M24.0625 3.77344H5.9375C4.04125 3.77344 2.5 5.31594 2.5 7.21344V22.8322C2.5 24.7297 4.04125 26.2734 5.9375 26.2734H24.0625C25.9587 26.2734 27.5 24.7297 27.5 22.8322V7.21344C27.5 5.31594 25.9587 3.77344 24.0625 3.77344ZM5.9375 5.64844H24.0625C24.925 5.64844 25.625 6.34844 25.625 7.21094V8.10344L15.5625 14.8122C15.2212 15.0372 14.78 15.0397 14.4375 14.8097L4.375 8.10344V7.21094C4.375 6.34844 5.075 5.64844 5.9375 5.64844ZM24.0625 24.3959H5.9375C5.075 24.3959 4.375 23.6959 4.375 22.8334V10.3009L13.425 16.3384C13.9037 16.6584 14.4525 16.8184 15 16.8184C15.55 16.8184 16.0963 16.6584 16.575 16.3397L25.625 10.3022V22.8297C25.625 23.6922 24.925 24.3922 24.0625 24.3922V24.3959Z" fill="#0F1419"/>
</svg>
