<svg width="30" height="30" viewBox="0 0 30 30" fill="none" xmlns="http://www.w3.org/2000/svg">
<path d="M27.1222 20.5866C27.0972 20.5666 24.4472 18.5366 24.4935 13.0491C24.5185 9.88406 23.4785 7.07156 21.5597 5.13031C19.841 3.38906 17.5135 2.42656 15.0072 2.41406H14.991C12.486 2.42656 10.1585 3.38906 8.43846 5.13156C6.52096 7.07281 5.47846 9.88406 5.50596 13.0491C5.55221 18.4616 2.98096 20.5078 2.87846 20.5866C2.55346 20.8278 2.42096 21.2491 2.54721 21.6341C2.67471 22.0191 3.03471 22.2778 3.43721 22.2778H9.58721C9.71471 25.1653 12.0835 27.4778 14.9997 27.4778C17.916 27.4778 20.2822 25.1653 20.4085 22.2778H26.561C26.9635 22.2778 27.3235 22.0203 27.4485 21.6353C27.5772 21.2516 27.4447 20.8291 27.1197 20.5878L27.1222 20.5866ZM15.001 25.5991C13.1197 25.5991 11.5885 24.1278 11.466 22.2766H18.536C18.411 24.1266 16.8822 25.6016 15.001 25.6016V25.5991ZM5.47596 20.4016C6.40096 18.9866 7.41096 16.6166 7.38096 13.0316C7.35846 10.3316 8.18596 8.05406 9.77221 6.44781C11.1385 5.06406 12.9972 4.29781 15.001 4.28906C17.0047 4.29906 18.8597 5.06406 20.226 6.44906C21.8135 8.05531 22.6422 10.3316 22.6197 13.0328C22.5897 16.6178 23.601 18.9891 24.526 20.4028H5.47596V20.4016Z" fill="#0F1419"/>
</svg>
