<svg width="32" height="32" viewBox="0 0 32 32" fill="none" xmlns="http://www.w3.org/2000/svg">
<path d="M27 5.25H5C4.53587 5.25 4.09075 5.43437 3.76256 5.76256C3.43437 6.09075 3.25 6.53587 3.25 7V25C3.25 25.4641 3.43437 25.9092 3.76256 26.2374C4.09075 26.5656 4.53587 26.75 5 26.75H6.675C6.8161 26.7498 6.95428 26.7099 7.07368 26.6347C7.19309 26.5595 7.28886 26.4522 7.35 26.325C7.85618 25.2547 8.65594 24.3502 9.6562 23.7168C10.6565 23.0834 11.8161 22.7471 13 22.7471C14.1839 22.7471 15.3435 23.0834 16.3438 23.7168C17.3441 24.3502 18.1438 25.2547 18.65 26.325C18.7111 26.4522 18.8069 26.5595 18.9263 26.6347C19.0457 26.7099 19.1839 26.7498 19.325 26.75H27C27.4641 26.75 27.9092 26.5656 28.2374 26.2374C28.5656 25.9092 28.75 25.4641 28.75 25V7C28.75 6.53587 28.5656 6.09075 28.2374 5.76256C27.9092 5.43437 27.4641 5.25 27 5.25ZM9.75 18C9.75 17.3572 9.94061 16.7289 10.2977 16.1944C10.6548 15.6599 11.1624 15.2434 11.7563 14.9974C12.3501 14.7514 13.0036 14.687 13.634 14.8124C14.2645 14.9378 14.8436 15.2474 15.2981 15.7019C15.7526 16.1564 16.0621 16.7355 16.1876 17.366C16.313 17.9964 16.2486 18.6499 16.0026 19.2437C15.7566 19.8376 15.3401 20.3452 14.8056 20.7023C14.2711 21.0594 13.6428 21.25 13 21.25C12.1391 21.2467 11.3143 20.9032 10.7055 20.2945C10.0968 19.6857 9.75329 18.8609 9.75 18ZM27.25 25C27.25 25.0663 27.2237 25.1299 27.1768 25.1768C27.1299 25.2237 27.0663 25.25 27 25.25H19.7875C18.9124 23.6801 17.5213 22.4612 15.85 21.8C16.6476 21.2018 17.2367 20.3679 17.5339 19.4163C17.8312 18.4647 17.8215 17.4437 17.5062 16.4979C17.191 15.5521 16.5861 14.7295 15.7774 14.1466C14.9686 13.5637 13.9969 13.25 13 13.25C12.0031 13.25 11.0314 13.5637 10.2226 14.1466C9.41386 14.7295 8.80902 15.5521 8.49375 16.4979C8.17849 17.4437 8.16881 18.4647 8.46606 19.4163C8.76332 20.3679 9.35245 21.2018 10.15 21.8C8.4787 22.4612 7.08755 23.6801 6.2125 25.25H5C4.93468 25.247 4.87284 25.2196 4.8266 25.1734C4.78036 25.1272 4.75304 25.0653 4.75 25V7C4.75 6.9337 4.77634 6.87011 4.82322 6.82322C4.87011 6.77634 4.9337 6.75 5 6.75H27C27.0663 6.75 27.1299 6.77634 27.1768 6.82322C27.2237 6.87011 27.25 6.9337 27.25 7V25ZM24.75 10V22C24.75 22.1989 24.671 22.3897 24.5303 22.5303C24.3897 22.671 24.1989 22.75 24 22.75H22C21.8011 22.75 21.6103 22.671 21.4697 22.5303C21.329 22.3897 21.25 22.1989 21.25 22C21.25 21.8011 21.329 21.6103 21.4697 21.4697C21.6103 21.329 21.8011 21.25 22 21.25H23.25V10.75H8.75V12C8.75 12.1989 8.67098 12.3897 8.53033 12.5303C8.38968 12.671 8.19891 12.75 8 12.75C7.80109 12.75 7.61032 12.671 7.46967 12.5303C7.32902 12.3897 7.25 12.1989 7.25 12V10C7.25 9.80109 7.32902 9.61032 7.46967 9.46967C7.61032 9.32902 7.80109 9.25 8 9.25H24C24.1989 9.25 24.3897 9.32902 24.5303 9.46967C24.671 9.61032 24.75 9.80109 24.75 10Z" fill="#0F1419"/>
</svg>
