<svg width="17" height="17" viewBox="0 0 17 17" fill="none" xmlns="http://www.w3.org/2000/svg">
<path d="M16.0394 15.2002L13.1419 12.3027C14.1908 11.0598 14.8281 9.45588 14.8281 7.70313C14.8281 3.76854 11.6377 0.578125 7.70313 0.578125C3.76854 0.578125 0.578125 3.76854 0.578125 7.70313C0.578125 11.6377 3.76854 14.8281 7.70313 14.8281C9.45667 14.8281 11.0598 14.1916 12.3011 13.1419L15.1986 16.0394C15.315 16.155 15.4678 16.2135 15.6182 16.2135C15.7686 16.2135 15.923 16.1558 16.0378 16.0394C16.2713 15.8074 16.2713 15.4322 16.0394 15.2002V15.2002ZM1.76563 7.70313C1.76563 4.42958 4.42958 1.76563 7.70313 1.76563C10.9767 1.76563 13.6406 4.42958 13.6406 7.70313C13.6406 10.9767 10.9767 13.6406 7.70313 13.6406C4.42958 13.6406 1.76563 10.9767 1.76563 7.70313Z" fill="#5B7083"/>
</svg>
